<svg width="78" height="100" viewBox="0 0 78 100" fill="none" xmlns="http://www.w3.org/2000/svg">
    <circle cx="38.5107" cy="36.5107" r="36.5107" fill="#F1F1F1"/>
    <path d="M4.55593 41.1443C3.97923 36.7639 7.0628 32.7453 11.4433 32.1686L32.0316 29.4581C36.4121 28.8813 40.4307 31.9649 41.0074 36.3454L41.4962 40.0581L5.04471 44.857L4.55593 41.1443Z" fill="#EEEEEE"/>
    <rect x="57.9902" y="29.9454" width="1.53192" height="5.10639" rx="0.765959" transform="rotate(82.5 57.9902 29.9454)" fill="#0B8CAD"/>
    <rect x="44" y="21.4862" width="1.53192" height="5.10639" rx="0.765959" transform="rotate(-7.5 44 21.4862)" fill="#0B8CAD"/>
    <rect x="52.9766" y="22.8798" width="1.53192" height="5.10639" rx="0.765959" transform="rotate(37.5 52.9766 22.8798)" fill="#0B8CAD"/>
    <rect x="9.38867" y="50.4656" width="10.7234" height="2.04256" rx="1.02128" transform="rotate(-7.5 9.38867 50.4656)" fill="#EEEEEE"/>
    <path d="M25.0706 58.2143V47.0714C25.0706 43.3773 26.5381 39.8345 29.1502 37.2224C31.7623 34.6103 35.3051 33.1428 38.9992 33.1428C42.6933 33.1428 46.236 34.6103 48.8482 37.2224C51.4603 39.8345 52.9277 43.3773 52.9277 47.0714V58.2143M19.4992 58.2143H58.4992C61.5762 58.2143 64.0706 60.7087 64.0706 63.7857V83.2857C64.0706 86.3627 61.5762 88.8571 58.4992 88.8571H19.4992C16.4221 88.8571 13.9277 86.3627 13.9277 83.2857V63.7857C13.9277 60.7087 16.4221 58.2143 19.4992 58.2143Z" stroke="#CCCCCC" stroke-linecap="round" stroke-linejoin="round"/>
</svg>